<?xml version="1.0" encoding="utf-8"?>
<!-- Generator: Adobe Illustrator 24.0.0, SVG Export Plug-In . SVG Version: 6.00 Build 0)  -->
<svg version="1.1" id="Layer_1" xmlns="http://www.w3.org/2000/svg" xmlns:xlink="http://www.w3.org/1999/xlink" x="0px" y="0px"
	 viewBox="0 0 1080 430.7" style="enable-background:new 0 0 1080 430.7;" xml:space="preserve">
<style type="text/css">
	.st0{fill:#A3D397;}
	.st1{fill:#37867B;}
	.st2{fill:#6D6E71;}
</style>
<g>
	<g>
		<path class="st1" d="M393.4,129.9h71.4v13.7h-27.2v88.6h-16.8v-88.6h-27.4V129.9z"/>
		<path class="st1" d="M483.5,171.8H544V186h-60.5V171.8z"/>
		<path class="st1" d="M632.7,187.4h-48.1v44.7h-16.8V129.9h16.8v43.9h48.1v-43.9h16.8v102.3h-16.8V187.4z"/>
		<path class="st1" d="M706.4,233.5c-23.3,0-40.5-16.5-40.5-41.9c0-25.5,16.5-41.8,40.5-41.8c23.1,0,39.4,16,39.4,39.9
			c0,2.8-0.1,5.4-0.6,8.2h-62c1.2,13.4,10.7,21.5,23.1,21.5c10.3,0,16-5,19.1-11.3h18.1C739.1,222.2,726.3,233.5,706.4,233.5z
			 M683.5,184.4h44.9c-0.3-12.5-10.2-20.5-22.7-20.5C694.4,163.9,685.2,171.6,683.5,184.4z"/>
		<path class="st1" d="M795,149.8c13.7,0,23.1,6.5,28.1,13.1v-11.8h16.9v81.1h-16.9v-12.1c-5.2,6.9-14.9,13.4-28.4,13.4
			c-21,0-38-17.2-38-42.2C756.8,166.3,773.7,149.8,795,149.8z M798.6,164.3c-12.5,0-24.6,9.4-24.6,26.9c0,17.5,12.1,27.7,24.6,27.7
			c12.7,0,24.6-9.9,24.6-27.4C823.1,174.2,811.2,164.3,798.6,164.3z"/>
		<path class="st1" d="M862.1,123.3h16.8v108.9h-16.8V123.3z"/>
		<path class="st1" d="M903.6,164.8h-9.6v-13.7h9.6v-20.2h16.9v20.2h19.7v13.7h-19.7v44.9c0,6,2.4,8.5,9.4,8.5h10.3v14H927
			c-14.4,0-23.4-6-23.4-22.5V164.8z"/>
		<path class="st1" d="M955.7,123.3h16.8v37.2c5.6-6.8,14.7-10.7,25.2-10.7c18.1,0,32.2,11.9,32.2,34.6v47.8h-16.6v-45.3
			c0-14.9-8.1-22.5-20.3-22.5c-12.4,0-20.5,7.7-20.5,22.5v45.3h-16.8V123.3z"/>
	</g>
	<g>
		<g>
			<path class="st2" d="M419.1,287.5v-27.3h5.3v22.6h13.9v4.7H419.1z"/>
			<path class="st2" d="M445.4,287.5v-27.3h5.3v27.3H445.4z"/>
			<path class="st2" d="M476.5,267.3c-0.2-0.2-0.5-0.4-1-0.7c-0.5-0.3-1.1-0.6-1.7-0.9c-0.7-0.3-1.4-0.5-2.2-0.7
				c-0.8-0.2-1.6-0.3-2.4-0.3c-1.5,0-2.5,0.3-3.3,0.8c-0.7,0.5-1.1,1.3-1.1,2.3c0,0.6,0.1,1,0.4,1.4c0.3,0.4,0.7,0.7,1.2,1
				c0.5,0.3,1.2,0.5,1.9,0.8c0.8,0.2,1.7,0.5,2.7,0.7c1.3,0.4,2.5,0.7,3.6,1.1c1.1,0.4,2,0.9,2.8,1.5c0.8,0.6,1.3,1.4,1.8,2.2
				c0.4,0.9,0.6,1.9,0.6,3.2c0,1.5-0.3,2.7-0.8,3.8c-0.6,1-1.3,1.9-2.2,2.5c-0.9,0.6-2,1.1-3.2,1.4s-2.5,0.4-3.8,0.4
				c-2.1,0-4.1-0.3-6.1-0.9c-2-0.6-3.8-1.5-5.4-2.6l2.3-4.6c0.2,0.2,0.6,0.5,1.3,0.9c0.6,0.4,1.3,0.7,2.1,1.1s1.7,0.7,2.7,0.9
				c1,0.3,2,0.4,3.1,0.4c2.9,0,4.4-0.9,4.4-2.8c0-0.6-0.2-1.1-0.5-1.5c-0.3-0.4-0.8-0.8-1.4-1.1c-0.6-0.3-1.4-0.6-2.2-0.8
				c-0.9-0.3-1.8-0.5-2.9-0.8c-1.3-0.4-2.4-0.7-3.4-1.2c-1-0.4-1.8-0.9-2.4-1.5c-0.6-0.6-1.1-1.2-1.4-2c-0.3-0.8-0.5-1.7-0.5-2.7
				c0-1.4,0.3-2.6,0.8-3.7c0.5-1.1,1.2-2,2.1-2.7c0.9-0.7,2-1.3,3.2-1.6c1.2-0.4,2.5-0.6,3.9-0.6c1.9,0,3.7,0.3,5.3,0.9
				c1.6,0.6,3,1.3,4.2,2.1L476.5,267.3z"/>
			<path class="st2" d="M507.9,264.9h-8.7v22.6h-5.3v-22.6h-8.7v-4.7h22.7V264.9z"/>
			<path class="st2" d="M534.1,282.8v4.7h-19v-27.3h18.6v4.7h-13.3v6.6h11.5v4.3h-11.5v7.1H534.1z"/>
			<path class="st2" d="M547.4,270v17.5h-5.3v-27.3h4.1l14.2,17.9v-17.9h5.3v27.3h-4.3L547.4,270z"/>
			<path class="st2" d="M575.3,287.5v-27.3h5.3v27.3H575.3z"/>
			<path class="st2" d="M595.4,270v17.5h-5.3v-27.3h4.1l14.2,17.9v-17.9h5.3v27.3h-4.3L595.4,270z"/>
			<path class="st2" d="M642.2,284.4c-2.2,2.2-4.7,3.3-7.6,3.3c-1.8,0-3.5-0.4-5.1-1.1c-1.6-0.7-3-1.7-4.1-3
				c-1.2-1.3-2.1-2.7-2.8-4.4c-0.7-1.7-1-3.5-1-5.5c0-1.9,0.3-3.6,1-5.3c0.7-1.7,1.6-3.1,2.8-4.3c1.2-1.2,2.6-2.2,4.2-3
				c1.6-0.7,3.4-1.1,5.3-1.1c2.6,0,4.8,0.5,6.6,1.6c1.8,1.1,3.2,2.5,4.1,4.3l-4,2.9c-0.7-1.4-1.7-2.4-2.9-3.1
				c-1.2-0.7-2.6-1.1-4.1-1.1c-1.2,0-2.2,0.2-3.2,0.7c-1,0.5-1.8,1.2-2.5,2c-0.7,0.8-1.2,1.8-1.6,2.9c-0.4,1.1-0.6,2.3-0.6,3.5
				c0,1.3,0.2,2.5,0.6,3.6s1,2.1,1.7,2.9c0.7,0.8,1.6,1.5,2.6,1.9c1,0.5,2.1,0.7,3.2,0.7c2.6,0,5-1.2,7.2-3.7v-1.9h-5.5v-3.9h9.9v14
				h-4.4V284.4z"/>
			<path class="st2" d="M687.4,264.9h-8.7v22.6h-5.3v-22.6h-8.7v-4.7h22.7V264.9z"/>
			<path class="st2" d="M705,287.7c-2,0-3.8-0.4-5.4-1.2c-1.6-0.8-3-1.8-4.2-3.1c-1.2-1.3-2.1-2.8-2.7-4.4s-1-3.4-1-5.1
				c0-1.8,0.3-3.6,1-5.2c0.7-1.7,1.6-3.1,2.8-4.4c1.2-1.3,2.6-2.3,4.2-3.1c1.6-0.8,3.4-1.1,5.3-1.1c2,0,3.8,0.4,5.4,1.2
				c1.6,0.8,3,1.9,4.2,3.2c1.1,1.3,2,2.8,2.7,4.5s1,3.4,1,5.1c0,1.8-0.3,3.6-1,5.2c-0.7,1.7-1.6,3.1-2.8,4.4c-1.2,1.3-2.6,2.3-4.2,3
				C708.7,287.3,707,287.7,705,287.7z M697.1,273.8c0,1.2,0.2,2.3,0.5,3.4c0.4,1.1,0.9,2.1,1.6,2.9c0.7,0.8,1.5,1.5,2.5,2
				c1,0.5,2.1,0.8,3.4,0.8c1.3,0,2.4-0.3,3.4-0.8c1-0.5,1.8-1.2,2.5-2.1c0.7-0.9,1.2-1.9,1.5-2.9c0.3-1.1,0.5-2.2,0.5-3.3
				c0-1.2-0.2-2.3-0.6-3.4c-0.4-1.1-0.9-2.1-1.6-2.9c-0.7-0.8-1.5-1.5-2.5-2c-1-0.5-2.1-0.7-3.3-0.7c-1.3,0-2.4,0.3-3.4,0.8
				c-1,0.5-1.8,1.2-2.5,2.1c-0.7,0.9-1.2,1.8-1.5,2.9C697.3,271.6,697.1,272.7,697.1,273.8z"/>
			<path class="st2" d="M741.1,260.2l6.7,13.2l6.8-13.2h5.7l-9.9,17.8v9.5h-5.3v-9.6l-9.9-17.7H741.1z"/>
			<path class="st2" d="M777.1,287.7c-2,0-3.8-0.4-5.4-1.2c-1.6-0.8-3-1.8-4.2-3.1c-1.2-1.3-2.1-2.8-2.7-4.4s-1-3.4-1-5.1
				c0-1.8,0.3-3.6,1-5.2c0.7-1.7,1.6-3.1,2.8-4.4c1.2-1.3,2.6-2.3,4.2-3.1c1.6-0.8,3.4-1.1,5.3-1.1c2,0,3.8,0.4,5.4,1.2
				c1.6,0.8,3,1.9,4.2,3.2c1.1,1.3,2,2.8,2.7,4.5s1,3.4,1,5.1c0,1.8-0.3,3.6-1,5.2c-0.7,1.7-1.6,3.1-2.8,4.4c-1.2,1.3-2.6,2.3-4.2,3
				C780.8,287.3,779,287.7,777.1,287.7z M769.2,273.8c0,1.2,0.2,2.3,0.5,3.4c0.4,1.1,0.9,2.1,1.6,2.9c0.7,0.8,1.5,1.5,2.5,2
				c1,0.5,2.1,0.8,3.4,0.8c1.3,0,2.4-0.3,3.4-0.8c1-0.5,1.8-1.2,2.5-2.1c0.7-0.9,1.2-1.9,1.5-2.9c0.3-1.1,0.5-2.2,0.5-3.3
				c0-1.2-0.2-2.3-0.6-3.4c-0.4-1.1-0.9-2.1-1.6-2.9c-0.7-0.8-1.5-1.5-2.5-2c-1-0.5-2.1-0.7-3.3-0.7c-1.3,0-2.4,0.3-3.4,0.8
				s-1.8,1.2-2.5,2.1c-0.7,0.9-1.2,1.8-1.5,2.9C769.4,271.6,769.2,272.7,769.2,273.8z"/>
			<path class="st2" d="M809.9,283c1.3,0,2.3-0.3,3.2-0.8c0.9-0.5,1.5-1.2,2.1-2c0.5-0.8,0.9-1.8,1.1-2.8c0.2-1.1,0.3-2.2,0.3-3.3
				v-13.9h5.3v13.9c0,1.9-0.2,3.6-0.7,5.3c-0.4,1.6-1.2,3.1-2.1,4.3s-2.2,2.2-3.7,2.9c-1.5,0.7-3.3,1.1-5.4,1.1
				c-2.2,0-4-0.4-5.6-1.1c-1.5-0.8-2.8-1.8-3.7-3c-0.9-1.2-1.6-2.7-2.1-4.3c-0.4-1.6-0.6-3.3-0.6-5.1v-13.9h5.3v13.9
				c0,1.2,0.1,2.3,0.3,3.3c0.2,1.1,0.6,2,1.1,2.8c0.5,0.8,1.2,1.5,2.1,2C807.6,282.8,808.7,283,809.9,283z"/>
			<path class="st2" d="M831,287.5v-27.3h12.1c1.3,0,2.4,0.3,3.5,0.8c1.1,0.5,2,1.2,2.7,2.1c0.8,0.9,1.4,1.8,1.8,2.9
				c0.4,1.1,0.7,2.2,0.7,3.3c0,1.8-0.4,3.4-1.3,4.8c-0.9,1.4-2.1,2.5-3.6,3.1l6.2,10.3h-6l-5.6-9.2h-5.2v9.2H831z M836.4,273.7h6.7
				c0.5,0,0.9-0.1,1.4-0.3c0.4-0.2,0.8-0.5,1.1-0.9c0.3-0.4,0.6-0.9,0.7-1.4c0.2-0.5,0.3-1.1,0.3-1.7c0-0.6-0.1-1.2-0.3-1.8
				c-0.2-0.5-0.5-1-0.8-1.4c-0.3-0.4-0.7-0.7-1.2-0.9c-0.4-0.2-0.9-0.3-1.4-0.3h-6.4V273.7z"/>
			<path class="st2" d="M896.5,260.2v27.3h-5.3v-11.7h-12.4v11.7h-5.3v-27.3h5.3v11h12.4v-11H896.5z"/>
			<path class="st2" d="M925,282.8v4.7h-19v-27.3h18.6v4.7h-13.3v6.6h11.5v4.3h-11.5v7.1H925z"/>
			<path class="st2" d="M940.8,260.2h4.7l10.4,27.3h-5.5l-2.5-6.8h-9.5l-2.5,6.8h-5.5L940.8,260.2z M946.9,277l-3.8-10.7l-3.9,10.7
				H946.9z"/>
			<path class="st2" d="M962.7,287.5v-27.3h5.3v22.6h13.9v4.7H962.7z"/>
			<path class="st2" d="M1004.9,264.9h-8.7v22.6h-5.3v-22.6h-8.7v-4.7h22.7V264.9z"/>
			<path class="st2" d="M1035,260.2v27.3h-5.3v-11.7h-12.4v11.7h-5.3v-27.3h5.3v11h12.4v-11H1035z"/>
		</g>
	</g>
	<g>
		<g>
			<path class="st1" d="M174.2,183.3H115c-4.3,0-7.8-3.5-7.8-7.8v0c0-4.3,3.5-7.8,7.8-7.8h59.3c4.3,0,7.8,3.5,7.8,7.8v0
				C182,179.8,178.6,183.3,174.2,183.3z M144.6,193.8L144.6,193.8c4.3,0,7.8,3.5,7.8,7.8v50.5c0,4.3-3.5,7.8-7.8,7.8h0
				c-4.3,0-7.8-3.5-7.8-7.8v-50.5C136.8,197.3,140.3,193.8,144.6,193.8z"/>
			<path class="st0" d="M276.4,175.5v76.5c0,4.3-3.5,7.8-7.8,7.8h0c-4.3,0-7.8-3.5-7.8-7.8v-19.6c0-5.3-5.2-9.1-10.3-7.4l-32.7,11.1
				c-3.2,1.1-5.3,4-5.3,7.4v8.5c0,4.3-3.5,7.8-7.8,7.8h0c-4.3,0-7.8-3.5-7.8-7.8v-76.5c0-4.3,3.5-7.8,7.8-7.8h0
				c4.3,0,7.8,3.5,7.8,7.8v35.2c0,5.3,5.2,9.1,10.3,7.4l32.7-11.1c3.2-1.1,5.3-4,5.3-7.4v-24c0-4.3,3.5-7.8,7.8-7.8h0
				C273,167.7,276.4,171.2,276.4,175.5z"/>
		</g>
		<g>
			<path class="st0" d="M208.3,378.6l-1.8-0.9l1.8-3.6l1.8,0.9L208.3,378.6z M248.1,337.2c-22.5-4.6-44.7-6.6-67.3-8.8
				c-4.5-0.5-9.1-0.9-13.7-1.4l5.9,0.9c23.1,3.6,45.9,7,69.1,13.1l-1,3.8c-23-6-45.7-9.4-68.7-13c-6.4-1-12.8-2-19.3-2.9
				c3.9,0.8,7.8,1.7,11.6,2.5c23.3,5.1,46.4,10.1,69.9,17.7l-1.2,3.8c-23.3-7.5-46.2-12.5-69.5-17.5c-7.9-1.7-15.8-3.5-23.8-5.3
				c5.5,1.6,11,3.2,16.5,4.8c23.3,6.8,46.5,13.5,69.9,22.5l-1.4,3.7c-23.4-9-46.4-15.6-69.6-22.4c-9.1-2.6-18.1-5.3-27.3-8.1
				c6.8,2.6,13.5,5.1,20.2,7.6c23,8.6,45.9,17.1,69.2,27.5l-1.6,3.6c-23.1-10.3-45.9-18.8-69.1-27.4c-9.7-3.7-19.6-7.4-29.5-11.2
				c7.6,3.5,15.2,7.1,22.7,10.7c22.7,10.7,45.3,21.2,67.8,32.7l-1.8,3.6c-22.7-11.6-45.2-22.1-67.6-32.6
				c-27.6-12.9-55.3-25.9-83.6-40.9l0.2-0.2l-1-0.5l0.1-0.2l-0.5-0.2l0.1-0.2l-0.4-0.2l0.1-0.2l-0.3-0.1l0.1-0.2l-0.2-0.1l1.4-3.6
				c45.6,18.1,86.7,22,126.7,25.8c22.7,2.2,45,4.3,67.8,8.9L248.1,337.2z"/>
			<path class="st0" d="M152.3,77.3c23,6,45.7,9.4,68.8,13c37.8,5.7,76.6,11.7,119.2,29.4l-1.5,3.7c-42.2-17.5-80.7-23.4-118.3-29.2
				c-23.1-3.6-45.9-7-69.1-13.1L152.3,77.3z"/>
			<path class="st0" d="M145.4,85c22.5,4.6,44.7,6.6,67.3,8.8c40.3,3.9,81.7,7.7,127.8,26.1l-1.4,3.6c-45.6-18.1-86.7-22-126.7-25.8
				c-22.7-2.2-45-4.3-67.7-8.9L145.4,85z"/>
			<path class="st0" d="M185.2,43.6l1.8,0.9l-1.8,3.6l-1.8-0.9L185.2,43.6z M187.2,44.6c22.7,11.6,45.2,22.1,67.6,32.6
				c27.6,12.9,55.3,25.9,83.6,40.9l-1.8,3.5c-28.3-14.9-56-27.9-83.5-40.7c-22.7-10.7-45.3-21.2-67.8-32.7L187.2,44.6z"/>
			<path class="st1" d="M347.6,284.9l-1.7,1.1l-2.1-3.3l1.7-1.1L347.6,284.9z M340.8,261.5c-19.3,15.7-36.6,32.3-54.2,49
				c-6.8,6.6-13.6,13.1-20.6,19.6c5.6-4.5,11.2-9.1,16.7-13.7c19-15.6,37.9-31.3,58.4-46.2l2.3,3.2c-20.5,14.9-39.3,30.4-58.2,46
				c-8.1,6.7-16.2,13.4-24.5,20c6.9-4.8,13.8-9.6,20.6-14.4c20.5-14.3,40.9-28.6,62.2-42.4l2.2,3.3c-21.3,13.9-41.6,28-62.1,42.3
				c-24.9,17.4-50.1,34.9-77.1,52l-0.2-0.2l-0.9,0.6l-0.2-0.2l-0.5,0.4l-0.1-0.2l-0.4,0.2l-0.1-0.1l-0.2,0.2L204,381l-0.2,0.2
				l-2.4-3.1c38.5-30.4,62.4-64,85.7-96.8c13.1-18.6,26.1-36.9,41.6-54.2l2.9,2.6c-15.2,17.2-28.2,35.4-41.3,53.9
				c-2.6,3.8-5.4,7.5-8,11.3l3.8-4.7c14.6-18.3,29-36.3,45.9-53.3l2.9,2.8c-16.8,16.9-31.1,34.8-45.6,53
				c-4.1,5.1-8.2,10.2-12.2,15.3c2.6-2.9,5.4-6,8.1-8.9c16-17.6,31.9-35.1,50.2-51.7l2.6,2.9c-18.1,16.4-33.9,33.8-49.9,51.4
				c-5.4,6-11,12-16.5,18c4.2-3.9,8.3-7.9,12.5-11.8c17.5-16.8,34.9-33.5,54.4-49.3L340.8,261.5z"/>
			<path class="st0" d="M177.3,52.9c23.1,10.3,46,18.8,69.1,27.4c30.3,11.3,60.9,22.8,92.9,38.5l-1.7,3.6
				c-31.9-15.6-62.4-27-92.6-38.3c-23-8.6-45.9-17.1-69.2-27.5L177.3,52.9z"/>
			<path class="st0" d="M168.3,61.1c23.4,9,46.4,15.6,69.7,22.4c32.9,9.6,66.3,19.3,101.8,35.7l-1.7,3.6
				c-35.3-16.2-68.5-25.9-101.3-35.5c-23.3-6.8-46.5-13.5-69.9-22.5L168.3,61.1z"/>
			<path class="st0" d="M159.9,69.3c23.3,7.5,46.2,12.5,69.5,17.5c35.4,7.7,71.5,15.6,110.6,32.6l-1.6,3.6
				c-38.8-16.8-74.6-24.7-109.9-32.3c-23.3-5.1-46.4-10.1-69.9-17.7L159.9,69.3z"/>
			<path class="st0" d="M336.1,117.3l0.1,2l-3.9,0.2l-0.1-2L336.1,117.3z M301.1,108.3c5.1,24,12.3,46.4,19.5,69
				c2.5,7.8,5,15.5,7.4,23.3c-1.4-5.6-2.7-11.2-4.1-16.8c-5.8-23.6-11.5-46.9-15.5-71.8l3.9-0.6c3.9,24.6,9.6,47.9,15.4,71.5
				c2.2,9.1,4.5,18.3,6.6,27.6c-1.2-7.1-2.3-14.1-3.6-21.2c-4.1-24.3-8.1-48.4-10.7-73.7l3.9-0.5c2.6,25.2,6.6,49.2,10.7,73.5
				c1.7,10.3,3.4,20.6,5.1,31.1c-0.7-8.3-1.4-16.6-2.1-24.9c-2.1-24.8-4.2-49.5-5.6-75l4-0.2c1.3,25.2,3.4,50,5.6,74.9
				c2.6,30.2,5.1,60.7,6.4,92.8l-0.3,0.1l0.1,1l-0.2,0.1l0.1,0.6h-0.2v0.4h-0.1v0.3h-0.1v0.2l-3.9,0.6c-7-48.6-24.2-86.1-40.9-122.6
				c-9.5-20.7-18.8-41.1-26.2-63.1l3.8-1.3c7.3,21.8,16.6,42.2,26.1,62.7c1.9,4.2,3.8,8.4,5.7,12.6l-2.3-5.7
				c-8.5-21.8-16.8-43.2-23.2-66.4l3.9-1.1c6.3,22.9,14.6,44.3,23,66c2.4,6,4.8,12.1,7.1,18.3c-1.2-3.9-2.4-7.7-3.7-11.6
				c-7.3-22.7-14.4-45.3-19.6-69.4L301.1,108.3z"/>
			<path class="st1" d="M45.9,137.3l1.7-1.1l2.1,3.3l-1.7,1.1L45.9,137.3z M61.9,192.6c15.2-17.2,28.2-35.4,41.3-53.9
				c2.6-3.8,5.4-7.5,8-11.3l-3.8,4.7c-14.6,18.3-29,36.3-45.9,53.3l-2.9-2.8c16.8-16.9,31.1-34.8,45.6-53
				c4.1-5.1,8.2-10.2,12.3-15.3c-2.7,2.9-5.4,6-8.2,8.9c-16,17.6-31.9,35.1-50.2,51.7l-2.6-2.9c18.1-16.4,33.9-33.8,50-51.4
				c5.4-6,10.9-12,16.5-18.1c-4.2,4-8.3,7.9-12.5,11.9C92,131.4,74.7,148,55.2,163.8l-2.5-3.1c19.3-15.7,36.6-32.3,54.2-49
				c6.8-6.6,13.6-13.1,20.6-19.6c-5.6,4.5-11.2,9.1-16.7,13.7c-19,15.6-37.9,31.3-58.4,46.2l-2.3-3.2c20.5-14.9,39.3-30.4,58.2-46
				c8.1-6.6,16.2-13.4,24.5-20c-6.9,4.8-13.8,9.6-20.6,14.4c-20.5,14.3-40.9,28.6-62.2,42.4l-2.2-3.3c21.3-13.9,41.7-28,62.1-42.3
				c24.9-17.4,50.1-34.9,77.1-52l0.2,0.2l0.9-0.6l0.2,0.2l0.5-0.4l0.1,0.2l0.4-0.2l0.1,0.1l0.2-0.2l0.1,0.1l0.2-0.2l2.4,3.1
				c-38.5,30.4-62.4,64-85.7,96.8c-13.1,18.6-26.1,36.9-41.6,54.2L61.9,192.6z"/>
			<path class="st0" d="M57.4,304.9l-0.1-2l3.9-0.2l0.1,2L57.4,304.9z M103.1,316.5c-6.3-22.9-14.6-44.3-23-66
				c-2.4-6-4.8-12.1-7.1-18.2c1.2,3.8,2.4,7.6,3.7,11.5c7.3,22.7,14.4,45.3,19.6,69.4l-3.9,0.8c-5.1-24-12.3-46.4-19.5-69
				c-2.5-7.8-5-15.5-7.4-23.3c1.4,5.6,2.7,11.2,4.1,16.8c5.8,23.6,11.6,46.9,15.5,71.8l-3.9,0.6c-3.9-24.6-9.6-47.9-15.4-71.5
				c-2.2-9.1-4.5-18.3-6.6-27.6c1.1,7.1,2.3,14.1,3.5,21.2c4.1,24.3,8.1,48.4,10.8,73.7l-4,0.4c-2.6-25.2-6.6-49.2-10.7-73.5
				c-1.7-10.3-3.4-20.5-5.1-31.1c0.7,8.3,1.4,16.6,2.1,24.9c2.1,24.8,4.2,49.5,5.6,75l-4,0.2c-1.3-25.2-3.4-50-5.5-74.9
				c-2.6-30.2-5.2-60.7-6.5-92.8l0.3-0.1l-0.1-1l0.2-0.1l-0.1-0.6h0.2v-0.4h0.1v-0.3h0.1v-0.2l3.9-0.6c7,48.6,24.2,86.1,40.9,122.6
				c9.5,20.7,18.8,41.1,26.2,63.1l-3.8,1.3c-7.3-21.8-16.6-42.2-26-62.7c-2-4.2-3.9-8.4-5.8-12.6l2.3,5.7
				c8.5,21.8,16.8,43.2,23.2,66.4L103.1,316.5z"/>
			<path class="st1" d="M183.3,378.4L58.4,306.3c-4.2-2.5-7.6-5.8-9.9-9.8c-2.3-3.9-3.6-8.5-3.6-13.4L45,139.1
				c0-4.9,1.2-9.5,3.5-13.4c2.3-4,5.7-7.3,9.9-9.8l125-72.1l0,0c4.2-2.5,8.8-3.7,13.4-3.7c4.5,0,9.1,1.2,13.4,3.6l125,72
				c4.2,2.4,7.6,5.8,9.9,9.7c2.3,4,3.6,8.5,3.6,13.4l0,0v144.2l0,0c0,4.9-1.3,9.5-3.6,13.5c-2.3,4-5.7,7.3-9.9,9.7l-125,72.1
				c-4.2,2.5-8.8,3.7-13.4,3.7C192.1,382.1,187.5,380.9,183.3,378.4L183.3,378.4z M60.4,302.9l125,72.1c3.6,2.1,7.5,3.2,11.4,3.2
				c3.9,0,7.8-1.1,11.4-3.2l125-72.1c3.6-2.1,6.5-4.9,8.5-8.3c1.9-3.4,2.9-7.3,2.9-11.5l0,0V138.9l0,0c0-4.2-1.1-8.1-2.9-11.5
				c-2-3.3-4.8-6.2-8.5-8.3l-125-71.9c-3.6-2.1-7.6-3.2-11.4-3.2c-3.9,0-7.8,1.1-11.4,3.2l0,0l-125,72.1c-3.6,2-6.5,4.9-8.4,8.3
				c-2,3.3-3,7.3-3,11.5v143.9c0,4.2,1.1,8.2,2.9,11.5C53.9,297.9,56.7,300.8,60.4,302.9L60.4,302.9z"/>
		</g>
	</g>
</g>
</svg>
