<?xml version="1.0" encoding="utf-8"?>
<!-- Generator: Adobe Illustrator 26.3.1, SVG Export Plug-In . SVG Version: 6.00 Build 0)  -->
<svg version="1.1" id="Layer_1" xmlns="http://www.w3.org/2000/svg" xmlns:xlink="http://www.w3.org/1999/xlink" x="0px" y="0px"
	 viewBox="0 0 1080 1080" style="enable-background:new 0 0 1080 1080;" xml:space="preserve">
<style type="text/css">
	.st0{fill:#A3D397;}
	.st1{fill:#37867B;}
	.st2{fill:#6D6E71;}
	.st3{fill:url(#SVGID_1_);}
</style>
<g>
	<g>
		<path class="st1" d="M472.45,456.52H294.53c-12.93,0-23.41-10.48-23.41-23.41v0c0-12.93,10.48-23.41,23.41-23.41h177.93
			c12.93,0,23.41,10.48,23.41,23.41v0C495.86,446.04,485.38,456.52,472.45,456.52z M383.48,488.03h0.01
			c12.93,0,23.41,10.48,23.41,23.41v151.53c0,12.93-10.48,23.41-23.41,23.41h-0.01c-12.93,0-23.41-10.48-23.41-23.41V511.43
			C360.07,498.51,370.55,488.03,383.48,488.03z"/>
		<path class="st0" d="M779.35,433.11v229.86c0,12.93-10.48,23.41-23.41,23.41h-0.01c-12.93,0-23.41-10.48-23.41-23.41v-58.84
			c0-16.04-15.76-27.33-30.95-22.16l-98.33,33.46c-9.49,3.23-15.87,12.14-15.87,22.16v25.39c0,12.93-10.48,23.41-23.41,23.41h0
			c-12.93,0-23.41-10.48-23.41-23.41V433.11c0-12.93,10.48-23.41,23.41-23.41h0c12.93,0,23.41,10.48,23.41,23.41v105.64
			c0,16.04,15.76,27.32,30.94,22.16l98.33-33.44c9.49-3.23,15.87-12.14,15.87-22.16v-72.2c0-12.93,10.48-23.41,23.41-23.41h0.01
			C768.87,409.7,779.35,420.18,779.35,433.11z"/>
	</g>
	<g>
		<path class="st0" d="M574.71,1043.08l-5.45-2.72l5.45-10.66l5.45,2.72L574.71,1043.08z M694.27,918.54
			c-67.61-13.84-134.31-19.97-202.14-26.32c-13.61-1.36-27.45-2.73-41.07-4.09l17.7,2.73c69.42,10.66,137.71,21.09,207.59,39.47
			l-2.95,11.35c-68.97-17.93-137.26-28.36-206.23-39.03c-19.29-2.95-38.57-5.9-57.85-8.85c11.8,2.49,23.37,4.99,34.94,7.49
			c70.1,15.42,139.3,30.4,209.85,53.09l-3.63,11.34c-69.88-22.46-138.84-37.43-208.72-52.63c-23.6-5.22-47.41-10.43-71.46-15.88
			c16.56,4.77,33.12,9.75,49.46,14.52c70.1,20.42,139.52,40.61,209.86,67.61l-4.09,11.11c-70.33-27-139.3-46.96-208.95-67.38
			c-27.23-7.94-54.45-15.87-82.13-24.27c20.42,7.71,40.61,15.42,60.8,22.91c69.19,25.86,137.94,51.5,207.82,82.58l-4.77,10.89
			c-69.42-30.86-137.94-56.49-207.36-82.35c-29.27-11.12-58.99-22.24-88.71-33.58c22.91,10.66,45.6,21.32,68.29,31.98
			c68.06,31.99,135.9,63.76,203.5,98.24l-5.45,10.66c-68.28-34.94-135.67-66.47-203.05-98.01
			c-82.81-38.8-166.07-77.82-251.15-122.74l0.45-0.68l-2.95-1.36l0.23-0.68l-1.59-0.68l0.23-0.45l-1.14-0.45l0.23-0.46l-0.91-0.22
			l0.23-0.45l-0.68-0.23l4.31-10.89c137.03,54.45,260.22,66.02,380.46,77.36c68.06,6.58,135.21,12.93,203.51,26.77L694.27,918.54z"
			/>
		<path class="st1" d="M993.06,761.54l-5.21,3.18l-6.35-9.98l4.99-3.18L993.06,761.54z M972.65,691.21
			c-58.08,47.19-110.03,97.1-162.67,147.24c-20.42,19.74-40.84,39.25-61.93,58.76c16.79-13.61,33.58-27.22,50.13-41.07
			c57.17-46.96,113.89-93.92,175.38-138.62l7.03,9.76c-61.48,44.69-117.97,91.2-174.92,138.16c-24.28,19.97-48.55,40.16-73.5,60.13
			c20.87-14.3,41.29-28.82,61.93-43.11c61.71-42.88,122.96-85.76,186.72-127.28l6.58,9.98c-63.98,41.74-125.01,84.17-186.49,127.05
			c-74.87,52.18-150.42,104.81-231.64,156.08l-0.45-0.68l-2.72,1.81l-0.45-0.68l-1.36,1.13l-0.23-0.45l-1.13,0.68l-0.23-0.23
			l-0.68,0.45l-0.23-0.23l-0.46,0.45l-7.25-9.3c115.7-91.2,187.4-192.15,257.27-290.62c39.48-55.81,78.49-110.71,124.78-162.89
			l8.85,7.94c-45.61,51.73-84.62,106.4-123.88,161.76c-7.94,11.34-16.11,22.46-24.05,33.8l11.35-14.07
			c43.78-54.9,87.12-109.13,137.71-160.17l8.62,8.39C904.36,676.23,861.25,730,817.69,784.45c-12.26,15.2-24.5,30.63-36.76,45.82
			c7.94-8.85,16.11-17.92,24.28-26.77c48.1-52.86,95.75-105.27,150.87-155.18l7.94,8.85c-54.45,49.23-101.87,101.41-149.97,154.27
			c-16.34,18.15-32.89,36.08-49.68,53.99c12.7-11.79,24.95-23.59,37.43-35.39c52.63-50.59,104.81-100.5,163.35-148.14L972.65,691.21
			z"/>
		<path class="st0" d="M958.36,258.34l0.22,6.12l-11.8,0.68l-0.23-6.13L958.36,258.34z M853.54,231.34
			c15.43,72.14,36.98,139.3,58.53,207.13c7.49,23.37,14.97,46.51,22.23,70.11c-4.08-16.79-8.16-33.58-12.25-50.37
			c-17.47-70.79-34.48-140.89-46.5-215.53l11.79-1.81c11.8,73.96,28.81,143.84,46.29,214.62c6.57,27.45,13.38,54.9,19.96,82.81
			c-3.63-21.33-7.03-42.43-10.66-63.75c-12.26-73.05-24.28-145.43-32.22-221.2l11.8-1.36c7.94,75.55,19.97,147.69,32.22,220.75
			c5.21,30.86,10.21,61.71,15.2,93.24c-2.05-24.96-4.09-49.91-6.35-74.87c-6.35-74.42-12.7-148.6-16.79-225.28l12.03-0.68
			c3.85,75.77,10.21,150.19,16.79,225.05c7.71,90.75,15.42,182.18,19.28,278.6l-0.91,0.23l0.23,2.95l-0.69,0.23l0.23,1.82h-0.45
			v1.13h-0.23v0.91h-0.22v0.68l-11.8,1.81c-21.1-145.88-72.59-258.4-122.96-368.21c-28.59-62.16-56.49-123.42-78.73-189.44
			l11.35-3.86c22,65.57,49.9,126.59,78.27,188.3c5.67,12.48,11.34,25.18,17.24,37.89l-6.81-17.01
			c-25.41-65.34-50.59-129.77-69.65-199.42l11.57-3.17c18.83,68.74,43.79,133.17,69.2,198.28c7.26,18.15,14.3,36.3,21.33,54.91
			c-3.63-11.58-7.26-23.14-11.11-34.71c-21.78-68.29-43.34-135.9-58.76-208.27L853.54,231.34z"/>
		<g>
			<path class="st0" d="M406.6,138.32c68.97,17.92,137.26,28.36,206.46,39.02c113.66,17.25,230.05,35.17,358,88.26l-4.54,11.11
				c-126.59-52.63-242.29-70.33-355.28-87.57c-69.42-10.66-137.71-21.1-207.58-39.48L406.6,138.32z"/>
			<path class="st0" d="M385.73,161.46c67.61,13.84,134.31,19.97,202.14,26.32c121.15,11.57,245.25,23.14,383.64,78.5l-4.31,10.89
				c-136.81-54.45-260.23-66.02-380.46-77.36c-68.07-6.58-135.22-12.93-203.28-26.77L385.73,161.46z"/>
			<path class="st0" d="M505.29,36.91l5.44,2.72l-5.44,10.66l-5.45-2.72L505.29,36.91z M511.41,39.86
				c68.29,34.94,135.67,66.47,203.05,98.01c82.8,38.79,166.07,77.82,251.14,122.73l-5.44,10.44
				c-85.08-44.69-168.11-83.72-250.7-122.28c-68.06-31.99-135.9-63.75-203.5-98.23L511.41,39.86z"/>
			<path class="st0" d="M481.69,64.82c69.42,30.86,138.17,56.49,207.36,82.36c90.97,34.03,182.86,68.51,279.05,115.48l-5.22,10.67
				c-95.74-46.74-187.4-81-278.15-115.03c-69.2-25.86-137.94-51.5-207.81-82.58L481.69,64.82z"/>
			<path class="st0" d="M454.47,89.55c70.33,27,139.3,46.96,209.18,67.38c98.69,28.81,198.96,58.08,305.82,107.08l-4.99,10.89
				c-105.95-48.78-205.77-77.82-304.24-106.63c-70.1-20.42-139.52-40.61-209.85-67.61L454.47,89.55z"/>
			<path class="st0" d="M429.51,114.28c69.88,22.46,138.84,37.43,208.73,52.63c106.4,23.14,214.62,46.96,332.14,98.01l-4.77,10.89
				c-116.38-50.59-224.15-74.19-329.87-97.1c-70.1-15.42-139.3-30.4-209.85-53.09L429.51,114.28z"/>
		</g>
		<path class="st1" d="M86.94,318.46l5.22-3.18l6.35,9.98l-4.99,3.17L86.94,318.46z M135.03,484.3
			c45.6-51.73,84.62-106.4,123.88-161.76c7.94-11.35,16.11-22.46,24.05-33.8l-11.35,14.06c-43.79,54.9-87.12,109.13-137.71,160.17
			l-8.62-8.39c50.37-50.82,93.47-104.58,137.03-159.04c12.26-15.2,24.5-30.62,36.98-45.82c-8.17,8.85-16.33,17.92-24.5,26.77
			c-48.1,52.86-95.74,105.27-150.87,155.18l-7.94-8.85c54.45-49.23,101.86-101.41,150.19-154.27
			c16.33-18.15,32.67-36.07,49.46-54.22c-12.48,12.02-24.96,23.82-37.43,35.62c-52.63,50.59-104.81,100.51-163.35,148.15l-7.49-9.31
			c58.08-47.19,110.03-97.1,162.67-147.24c20.42-19.74,40.84-39.25,61.94-58.76c-16.79,13.61-33.58,27.22-50.14,41.06
			c-57.17,46.96-113.89,93.93-175.37,138.62l-7.03-9.75c61.48-44.69,117.97-91.2,174.92-138.16c24.28-19.96,48.78-40.16,73.51-60.12
			c-20.65,14.29-41.29,28.81-61.94,43.11c-61.48,42.88-122.96,85.76-186.71,127.28l-6.58-9.99
			c63.98-41.74,125.23-84.17,186.49-127.05C353.96,135.6,429.51,82.96,510.73,31.69l0.45,0.68l2.72-1.81l0.45,0.68l1.36-1.13
			l0.23,0.45l1.14-0.68l0.23,0.23l0.68-0.45l0.23,0.23l0.45-0.45l7.26,9.3c-115.7,91.2-187.4,192.16-257.27,290.62
			c-39.48,55.81-78.5,110.71-124.78,162.9L135.03,484.3z"/>
		<path class="st0" d="M121.65,821.66l-0.23-6.12l11.8-0.68l0.23,6.12L121.65,821.66z M258.68,856.38
			c-18.83-68.75-43.79-133.18-69.2-198.29c-7.26-18.15-14.29-36.3-21.33-54.68c3.63,11.34,7.26,22.91,11.12,34.49
			c21.78,68.29,43.33,135.9,58.99,208.27l-11.8,2.49c-15.43-72.14-36.98-139.3-58.53-207.13c-7.49-23.37-14.97-46.51-22.23-70.1
			c4.08,16.79,8.17,33.58,12.25,50.37c17.47,70.78,34.71,140.89,46.51,215.53l-11.8,1.82c-11.8-73.96-28.81-143.84-46.28-214.63
			c-6.58-27.45-13.39-54.9-19.74-82.81c3.4,21.33,6.81,42.42,10.44,63.75c12.25,73.05,24.28,145.42,32.44,221.43l-12.02,1.13
			c-7.94-75.55-19.97-147.69-32.22-220.75c-4.99-30.85-10.21-61.71-15.2-93.24c2.04,24.96,4.31,49.91,6.35,74.87
			c6.35,74.42,12.71,148.6,16.79,225.28l-12.02,0.69c-3.86-75.78-10.21-150.19-16.56-225.06c-7.94-90.75-15.65-182.18-19.51-278.6
			l0.91-0.23l-0.23-2.95l0.68-0.23l-0.23-1.82h0.45v-1.13h0.23v-0.91h0.23v-0.68l11.8-1.81c21.1,145.88,72.6,258.41,122.96,368.21
			c28.59,62.17,56.49,123.42,78.73,189.44l-11.35,3.85c-22.01-65.57-49.91-126.59-78.05-188.3c-5.9-12.48-11.57-25.18-17.47-37.89
			l6.81,17.02c25.41,65.34,50.59,129.77,69.65,199.42L258.68,856.38z"/>
		<path class="st1" d="M499.61,1042.41L124.6,825.97c-12.71-7.49-22.92-17.47-29.72-29.5c-6.8-11.79-10.67-25.63-10.67-40.38
			l0.23-432.19c0-14.74,3.64-28.59,10.44-40.38c6.8-12.03,17.01-22.01,29.72-29.49L499.84,37.59l0,0
			c12.71-7.49,26.32-11.12,40.16-11.12c13.62,0,27.45,3.63,40.16,10.89L955.4,253.57c12.71,7.26,22.92,17.47,29.72,29.27
			c6.81,12.02,10.67,25.64,10.67,40.38l0,0v433.1l0,0c0,14.75-3.86,28.59-10.67,40.39c-6.8,12.02-17.01,22-29.72,29.26
			l-375.24,216.44c-12.71,7.48-26.54,11.11-40.16,11.11C526.16,1053.53,512.32,1049.89,499.61,1042.41L499.61,1042.41z
			 M130.5,815.54l375.24,216.66c10.89,6.35,22.46,9.53,34.26,9.53c11.57,0,23.37-3.17,34.26-9.53L949.5,815.76
			c10.89-6.35,19.52-14.75,25.41-24.96c5.67-10.21,8.85-21.78,8.85-34.49l0,0v-433.1l0,0c0-12.71-3.17-24.27-8.85-34.48
			c-5.89-9.98-14.51-18.61-25.41-24.96L574.26,47.8c-10.89-6.35-22.69-9.53-34.26-9.53c-11.57,0-23.37,3.17-34.26,9.53l0,0
			L130.5,264.46c-10.89,6.12-19.51,14.75-25.18,24.96c-5.9,9.98-9.08,21.78-9.08,34.48v432.19c0,12.71,3.18,24.5,8.85,34.49
			C110.99,800.79,119.61,809.41,130.5,815.54L130.5,815.54z"/>
	</g>
</g>
</svg>
